<svg width="47" height="46" viewBox="0 0 47 46" fill="none" xmlns="http://www.w3.org/2000/svg">
<path d="M8.1853 38.3334C7.13113 38.3334 6.22838 37.9577 5.47705 37.2064C4.72571 36.4551 4.35068 35.553 4.35196 34.5001V11.5001C4.35196 10.4459 4.72763 9.54317 5.47896 8.79183C6.2303 8.0405 7.13241 7.66547 8.1853 7.66675H38.852C39.9061 7.66675 40.8089 8.04242 41.5602 8.79375C42.3115 9.54508 42.6866 10.4472 42.6853 11.5001V34.5001C42.6853 35.5542 42.3096 36.457 41.5583 37.2083C40.807 37.9597 39.9048 38.3347 38.852 38.3334H8.1853ZM23.5186 24.9167L8.1853 15.3334V34.5001H38.852V15.3334L23.5186 24.9167ZM23.5186 21.0834L38.852 11.5001H8.1853L23.5186 21.0834ZM8.1853 15.3334V11.5001V34.5001V15.3334Z" fill="#F8F8F8"/>
</svg>
