<svg width="50" height="50" viewBox="0 0 50 50" fill="none" xmlns="http://www.w3.org/2000/svg">
<path d="M25.0038 41.6667C29.424 41.6667 33.6633 39.9108 36.7889 36.7852C39.9145 33.6596 41.6704 29.4204 41.6704 25.0001C41.6704 20.5798 39.9145 16.3406 36.7889 13.215C33.6633 10.0894 29.424 8.33341 25.0038 8.33341C20.5835 8.33341 16.3443 10.0894 13.2187 13.215C10.0931 16.3406 8.33711 20.5798 8.33711 25.0001C8.33711 29.4204 10.0931 33.6596 13.2187 36.7852C16.3443 39.9108 20.5835 41.6667 25.0038 41.6667ZM25.0038 45.8334C13.4975 45.8334 4.17044 36.5063 4.17044 25.0001C4.17044 13.4938 13.4975 4.16675 25.0038 4.16675C36.51 4.16675 45.8371 13.4938 45.8371 25.0001C45.8371 36.5063 36.51 45.8334 25.0038 45.8334ZM18.5246 27.4376L13.3204 25.8147C12.1954 25.4709 12.1892 24.6959 13.5725 24.1397L33.8496 16.3063C35.0246 15.8272 35.6954 16.4334 35.3142 17.9522L31.86 34.2438C31.6184 35.4042 30.9204 35.6813 29.9517 35.1459L24.6371 31.2126L22.16 33.6042C21.9059 33.8501 21.6996 34.0605 21.3079 34.1126C20.9184 34.1667 20.5975 34.0501 20.3621 33.4042L18.5496 27.423L18.5246 27.4376Z" fill="#F8F8F8"/>
</svg>
