<svg width="51" height="50" viewBox="0 0 51 50" fill="none" xmlns="http://www.w3.org/2000/svg">
<path d="M39.7755 10.2294C37.8655 8.30005 35.5904 6.77035 33.0831 5.72948C30.5757 4.68861 27.8861 4.15741 25.1713 4.16687C13.7963 4.16687 4.52548 13.4377 4.52548 24.8127C4.52548 28.4585 5.48381 32.0002 7.27548 35.1252L4.35881 45.8335L15.2963 42.9585C18.3171 44.6044 21.713 45.4794 25.1713 45.4794C36.5463 45.4794 45.8172 36.2085 45.8172 24.8335C45.8172 19.3127 43.6713 14.1252 39.7755 10.2294ZM25.1713 41.9794C22.088 41.9794 19.0671 41.146 16.4213 39.5835L15.7963 39.2085L9.29631 40.9169L11.0255 34.5835L10.6088 33.9377C8.89578 31.2022 7.98619 28.0403 7.98381 24.8127C7.98381 15.3544 15.6921 7.64604 25.1505 7.64604C29.7338 7.64604 34.0463 9.43771 37.2755 12.6877C38.8744 14.2793 40.1415 16.1724 41.0034 18.2573C41.8652 20.3423 42.3047 22.5775 42.2963 24.8335C42.338 34.2919 34.6296 41.9794 25.1713 41.9794ZM34.588 29.146C34.0671 28.896 31.5255 27.646 31.0671 27.4585C30.588 27.2919 30.2546 27.2085 29.9005 27.7085C29.5463 28.2294 28.5671 29.396 28.2755 29.7294C27.9838 30.0835 27.6713 30.1252 27.1505 29.8544C26.6296 29.6044 24.963 29.0419 23.0046 27.2919C21.463 25.9169 20.4421 24.2294 20.1296 23.7085C19.838 23.1877 20.088 22.9169 20.3588 22.646C20.588 22.4169 20.8796 22.0419 21.1296 21.7502C21.3796 21.4585 21.4838 21.2294 21.6505 20.896C21.8171 20.5419 21.7338 20.2502 21.6088 20.0002C21.4838 19.7502 20.4421 17.2085 20.0255 16.1669C19.6088 15.1669 19.1713 15.2919 18.8588 15.271H17.8588C17.5046 15.271 16.963 15.396 16.4838 15.9169C16.0255 16.4377 14.6921 17.6877 14.6921 20.2294C14.6921 22.771 16.5463 25.2294 16.7963 25.5627C17.0463 25.9169 20.4421 31.1252 25.6088 33.3544C26.838 33.896 27.7963 34.2085 28.5463 34.4377C29.7755 34.8335 30.9005 34.771 31.7963 34.646C32.7963 34.5002 34.8588 33.396 35.2755 32.1877C35.713 30.9794 35.713 29.9585 35.5671 29.7294C35.4213 29.5002 35.1088 29.396 34.588 29.146Z" fill="#F8F8F8"/>
</svg>
